<svg xmlns="http://www.w3.org/2000/svg" width="100" height="100" viewBox="0 0 100 100"><defs><style>.a{fill:#9eca45;}</style></defs><path class="a" d="M79.492,12.109H73.438a9.111,9.111,0,0,1-8.789-9.18A2.931,2.931,0,0,0,61.719,0H38.281a2.931,2.931,0,0,0-2.93,2.93,9.111,9.111,0,0,1-8.789,9.18H20.508A20.53,20.53,0,0,0,0,32.617v29.3a2.931,2.931,0,0,0,2.93,2.93H17.773V97.07A2.931,2.931,0,0,0,20.7,100H47.07V32.617a2.93,2.93,0,1,1,5.859,0V100H79.3a2.931,2.931,0,0,0,2.93-2.93V64.844H97.07a2.931,2.931,0,0,0,2.93-2.93v-29.3A20.53,20.53,0,0,0,79.492,12.109Z"/></svg>