<svg xmlns="http://www.w3.org/2000/svg" width="33.333" height="66.113" viewBox="0 0 33.333 66.113"><defs><style>.a{fill:#8ec125;}</style></defs><g transform="translate(-2.335)"><g transform="translate(9.02 0)"><g transform="translate(0 0)"><circle class="a" cx="5.77" cy="5.77" r="5.77"/></g></g><g transform="translate(2.335 2.43)"><path class="a" d="M35.63,21.153a2.8,2.8,0,0,0-4.983-1.243l-7.4,9.631-3.152.626a3.881,3.881,0,0,0-1.893-.5l-6.951-.028A3.9,3.9,0,0,0,7.34,33.521l-.008,1.993L10.757,32.7,3.794,41.888a2.784,2.784,0,0,0-.374,2.6L7.3,55.153a2.784,2.784,0,0,0,5.231-1.907L9.235,44.2l6.278-8.527L12.1,44.241l2.949,8.089A5.456,5.456,0,0,1,8.83,59.546l-.779,4.876L2.581,77.9a3.341,3.341,0,0,0,6.191,2.512l5.613-13.832a3.338,3.338,0,0,0,.2-.729l1.423-8.905,2.322,9.036.276,13.243a3.341,3.341,0,0,0,6.68-.139l-.284-13.63a3.344,3.344,0,0,0-.1-.762l-2.9-11.267.073-17.978,3.284-.653a2.784,2.784,0,0,0,1.667-1.037l8.055-10.434A2.8,2.8,0,0,0,35.63,21.153Z" transform="translate(-2.335 -18.816)"/></g></g></svg>