<svg xmlns="http://www.w3.org/2000/svg" width="78.747" height="48.333" viewBox="0 0 78.747 48.333"><defs><style>.a{fill:#8ec125;}</style></defs><g transform="translate(0)"><g transform="translate(0 3.456)"><g transform="translate(0 0)"><path class="a" d="M56.125,160.35,53.3,157.6a5,5,0,0,1-6.579-6.406l-5.092-4.958a3.419,3.419,0,0,0-4.3-.384L28.825,151.6l-3.614-13.943,7.715-11.572a2.564,2.564,0,0,0-1.944-3.979L20.71,121.34a8.114,8.114,0,0,1,2.215,5.306l3.3.244-4.557,6.835-9.4,2.389L15.62,139.1l-9.11-5.224,1.822-2.134a8.111,8.111,0,0,1-1.5-6.139L.614,132.884a2.564,2.564,0,0,0,.663,3.882l12.055,7-2.543-.615,3.993,17.21a5.46,5.46,0,0,0,8.371,3.294l15.7-10.579,12.5,12.175a3.419,3.419,0,1,0,4.77-4.9Z" transform="translate(0 -121.34)"/></g></g><g transform="translate(8.895 3.089)"><g transform="translate(0 0)"><circle class="a" cx="5.933" cy="5.933" r="5.933"/></g></g><g transform="translate(53.102)"><circle class="a" cx="6.261" cy="6.261" r="6.261"/></g><g transform="translate(48.556 12.524)"><path class="a" d="M345.7,199.8c-.5-1.92-.742-2.8-4.38-16.01a4.752,4.752,0,0,0-5.886-3.307l-4.2,1.2a4.752,4.752,0,0,0-3.25,5.913l.313,1.06,2.534-2.671-4.31,7.409-9.675,7.192a2.837,2.837,0,1,0,3.385,4.553l10.142-7.54a2.837,2.837,0,0,0,.76-.85l4.6-7.912-2.732,9c-.233.768-.728,1.045-1.339,1.5l-7.739,5.753c.346.4-.583-.341,13.531,10.316a3.4,3.4,0,0,0,4.1-5.434l-6.281-4.742,7.624-.935A3.4,3.4,0,0,0,345.7,199.8Z" transform="translate(-315.701 -180.3)"/></g></g></svg>