<svg xmlns="http://www.w3.org/2000/svg" width="64" height="31.689" viewBox="0 0 64 31.689"><defs><style>.a{fill:#8ec125;}</style></defs><g transform="translate(0 -0.5)"><path class="a" d="M140.172,70.086h23.036V81.44H140.172Zm0,0" transform="translate(-119.69 -59.418)"/><path class="a" d="M405.763,48.953h-1.6V65.7h1.6a3.35,3.35,0,0,0,3.346-3.346V52.3a3.349,3.349,0,0,0-3.346-3.345Zm0,0" transform="translate(-345.109 -41.373)"/><path class="a" d="M324.176.5h-6.347V32.189h6.347a3.35,3.35,0,0,0,3.346-3.346v-25A3.35,3.35,0,0,0,324.176.5Zm0,0" transform="translate(-271.388 0)"/><path class="a" d="M53.836,3.846v25a3.349,3.349,0,0,0,3.346,3.346h6.347V.5H57.182a3.35,3.35,0,0,0-3.346,3.346Zm0,0" transform="translate(-45.969 0)"/><path class="a" d="M0,52.3V62.35A3.35,3.35,0,0,0,3.346,65.7h1.6V48.953h-1.6A3.35,3.35,0,0,0,0,52.3Zm0,0" transform="translate(0 -41.373)"/></g></svg>